HIERARCHY
ROOT tri_prism_large
{
	OFFSET 0.000000 0.000000 0.000000
	CHANNELS 6 Xposition Yposition Zposition Yrotation Xrotation Zrotation
	End Site
	{
		OFFSET 0.000000 0.000000 0.000000
	}
}
MOTION
Frames: 153
Frame Time: 0.008333334
-1.583327 1.213881 3.921358 53.801400 -0.795929 0.684059 
-1.582925 1.213731 3.921576 53.711590 -0.794312 0.675712 
-1.582227 1.213799 3.921525 53.641240 -0.816528 0.721013 
-1.582091 1.213951 3.921517 53.634130 -0.819397 0.708018 
-1.581692 1.213975 3.921664 53.579710 -0.823853 0.712907 
-1.580855 1.213800 3.922088 53.553250 -0.827515 0.701631 
-1.580251 1.213963 3.922126 53.528290 -0.885681 0.698497 
-1.579501 1.213982 3.922539 53.521030 -0.839417 0.675584 
-1.579348 1.213816 3.923555 53.396980 -0.784393 0.747189 
-1.578663 1.214008 3.923693 53.415810 -0.851044 0.669829 
-1.578071 1.214255 3.923914 53.359180 -0.785797 0.658601 
-1.577804 1.213999 3.924659 53.324810 -0.809143 0.703208 
-1.577088 1.214148 3.924942 53.201130 -0.814209 0.730139 
-1.576331 1.214104 3.925162 53.183700 -0.856323 0.702912 
-1.575765 1.214166 3.925853 53.092690 -0.803131 0.708730 
-1.575221 1.214330 3.926645 53.014020 -0.795715 0.705800 
-1.574549 1.214107 3.927022 52.938160 -0.807190 0.671728 
-1.573554 1.214058 3.927308 52.846590 -0.765381 0.712467 
-1.572841 1.214228 3.927849 52.797530 -0.812286 0.660577 
-1.571951 1.214139 3.928564 52.796110 -0.825623 0.674168 
-1.570682 1.214017 3.929083 52.768830 -0.808746 0.679270 
-1.569231 1.213987 3.930436 52.797540 -0.776764 0.642187 
-1.567943 1.214263 3.931049 52.870060 -0.793457 0.629926 
-1.566897 1.214243 3.931952 52.879510 -0.773621 0.643568 
-1.565711 1.214353 3.932342 52.855710 -0.774262 0.671077 
-1.564812 1.214070 3.933040 52.916700 -0.821198 0.693463 
-1.563783 1.213856 3.933719 52.903090 -0.818390 0.738322 
-1.562883 1.213930 3.933873 52.908090 -0.772308 0.771891 
-1.562322 1.213814 3.934818 52.877670 -0.787262 0.771128 
-1.561793 1.213931 3.935494 52.846660 -0.825775 0.761115 
-1.560539 1.213855 3.935657 52.839680 -0.735474 0.776398 
-1.560020 1.213493 3.936449 52.870500 -0.730713 0.770605 
-1.559613 1.213802 3.936889 52.847740 -0.706757 0.742544 
-1.559500 1.213882 3.936842 52.843970 -0.743561 0.750891 
-1.559433 1.213741 3.936999 52.878320 -0.724365 0.764440 
-1.559626 1.213713 3.936943 52.886880 -0.705414 0.772730 
-1.559594 1.213940 3.936983 52.925720 -0.777374 0.750367 
-1.560124 1.213763 3.936941 52.924230 -0.791199 0.731599 
-1.560249 1.213778 3.936587 52.918010 -0.767517 0.794694 
-1.559943 1.213664 3.936485 52.929450 -0.814514 0.801569 
-1.560431 1.213971 3.936136 52.936440 -0.814575 0.835141 
-1.560563 1.213700 3.936600 52.918840 -0.857239 0.771101 
-1.560683 1.213816 3.936494 52.941360 -0.796448 0.810160 
-1.560717 1.213673 3.936642 52.948640 -0.794312 0.822146 
-1.560772 1.213868 3.936020 52.955150 -0.856049 0.828732 
-1.560658 1.213704 3.936187 52.959210 -0.799133 0.843975 
-1.561123 1.213719 3.936409 52.922760 -0.799774 0.792092 
-1.560503 1.213766 3.936218 52.954010 -0.866180 0.834954 
-1.560418 1.213968 3.936419 52.983760 -0.836487 0.799782 
-1.560244 1.213904 3.936476 52.933170 -0.819061 0.748869 
-1.559872 1.213833 3.936591 52.933320 -0.770142 0.769238 
-1.559521 1.213884 3.936501 52.927000 -0.771484 0.787926 
-1.559395 1.213688 3.936633 52.843580 -0.739746 0.774252 
-1.558890 1.213588 3.936793 52.853880 -0.749481 0.737140 
-1.558397 1.213932 3.936855 52.882530 -0.747925 0.750175 
-1.557653 1.214038 3.937261 52.898690 -0.742096 0.719592 
-1.556878 1.213829 3.937483 52.945680 -0.792786 0.724783 
-1.556278 1.214029 3.937840 52.860750 -0.784943 0.684279 
-1.555482 1.214042 3.937995 52.833680 -0.810822 0.725510 
-1.554085 1.213738 3.938162 52.889610 -0.723084 0.737241 
-1.552795 1.213835 3.938412 52.780720 -0.759430 0.665550 
-1.551087 1.213820 3.938651 52.804060 -0.729858 0.674717 
-1.549475 1.213626 3.938812 52.772740 -0.764069 0.706477 
-1.548082 1.213647 3.938906 52.620060 -0.809296 0.720098 
-1.545932 1.213716 3.939641 52.514610 -0.767242 0.698929 
-1.544044 1.213991 3.939295 52.479520 -0.749756 0.679726 
-1.541924 1.213699 3.939685 52.422100 -0.791931 0.612498 
-1.540146 1.213929 3.940076 52.502810 -0.728699 0.652355 
-1.537802 1.213916 3.940194 52.600410 -0.717682 0.677116 
-1.534870 1.213913 3.940237 52.611140 -0.805420 0.676148 
-1.532803 1.214196 3.940390 52.620270 -0.789124 0.642794 
-1.530897 1.214108 3.940632 52.713370 -0.719055 0.635963 
-1.529637 1.214039 3.940878 52.713150 -0.809479 0.649303 
-1.529114 1.213977 3.941081 52.726900 -0.849640 0.625057 
-1.527083 1.214006 3.940704 52.828600 -0.852112 0.786166 
-1.526548 1.214137 3.941184 52.844890 -0.838196 0.773916 
-1.525908 1.214231 3.941884 52.859140 -0.814301 0.779360 
-1.525600 1.214033 3.942266 52.865730 -0.823029 0.820681 
-1.525666 1.214177 3.943022 52.891360 -0.881348 0.834265 
-1.525928 1.214548 3.944136 52.828560 -0.914856 0.823649 
-1.526099 1.214602 3.946085 52.791690 -0.977142 0.974854 
-1.527781 1.215332 3.950220 52.881640 -1.056793 1.104716 
-1.531304 1.215429 3.955059 52.885200 -1.176178 1.525752 
-1.536790 1.216477 3.963176 52.859790 -1.296021 2.371426 
-1.545189 1.218554 3.971405 52.839170 -1.436676 2.971900 
-1.552058 1.222606 3.978687 52.932960 -1.830719 3.894169 
-1.561694 1.228451 3.987244 52.880920 -2.208221 4.495712 
-1.570056 1.235613 3.994856 52.894890 -2.537872 5.353581 
-1.579188 1.243784 4.001544 52.851240 -2.989868 6.062917 
-1.587469 1.253577 4.008319 53.031200 -3.464020 6.977895 
-1.597324 1.264560 4.015986 53.014290 -4.000549 7.658298 
-1.606213 1.276191 4.023415 52.996540 -4.522034 8.516098 
-1.615591 1.288896 4.031590 52.981110 -4.961853 9.356033 
-1.625582 1.303127 4.039995 52.777640 -5.420380 10.042650 
-1.634430 1.317935 4.048978 52.642130 -5.959991 10.744630 
-1.642812 1.333158 4.056367 52.498520 -6.407806 11.608890 
-1.652084 1.349562 4.064825 52.240460 -6.959259 12.304700 
-1.660277 1.367065 4.070468 51.933060 -7.443115 13.047570 
-1.668332 1.385389 4.076956 51.666090 -8.087646 13.707320 
-1.677282 1.405326 4.082432 51.369760 -8.618469 14.254250 
-1.683682 1.426063 4.086914 51.169510 -9.215759 14.955190 
-1.689817 1.447839 4.090248 51.040490 -9.766052 15.525730 
-1.696104 1.470636 4.094727 50.729020 -10.324220 15.940310 
-1.700526 1.494413 4.099450 50.695940 -10.661930 16.338930 
-1.703535 1.519389 4.104503 50.652140 -11.019780 16.827650 
-1.704143 1.544260 4.109905 50.537630 -11.318970 17.065940 
-1.704973 1.570490 4.115473 50.701630 -11.445530 17.361840 
-1.705145 1.596471 4.119965 50.755040 -11.752560 17.654560 
-1.705872 1.622917 4.124946 50.871140 -11.940830 17.926530 
-1.707203 1.649689 4.130023 50.756960 -12.123570 18.201550 
-1.707890 1.676021 4.136071 50.538990 -12.299160 18.485990 
-1.709230 1.702056 4.141959 50.306400 -12.468020 18.898250 
-1.710229 1.728577 4.148292 50.190690 -12.478090 19.270170 
-1.710579 1.754999 4.153991 50.052910 -12.601500 19.649010 
-1.710498 1.781511 4.160250 49.847860 -12.465300 20.144620 
-1.709601 1.808190 4.166948 49.453580 -12.510380 20.569010 
-1.707321 1.835424 4.172741 49.362200 -12.403780 20.954880 
-1.704733 1.862203 4.179384 49.139470 -12.293240 21.331310 
-1.701904 1.888951 4.187395 48.801020 -12.148410 21.818140 
-1.699102 1.915300 4.195119 48.441590 -11.976620 22.352600 
-1.697571 1.941329 4.201458 47.964760 -11.754000 22.871740 
-1.696563 1.966665 4.209638 47.423780 -11.626400 23.468510 
-1.696672 1.991826 4.217052 46.896450 -11.416170 24.164720 
-1.696945 2.016263 4.225043 46.268750 -11.202880 24.737560 
-1.696824 2.039915 4.232492 45.501480 -10.998900 25.438200 
-1.697644 2.063031 4.240155 44.692870 -10.769380 26.168940 
-1.699845 2.086220 4.246931 43.776070 -10.491060 26.957720 
-1.701565 2.107858 4.253147 42.736060 -10.149020 27.694570 
-1.705205 2.129081 4.259233 41.808690 -9.828491 28.370700 
-1.709000 2.148046 4.265470 40.486890 -9.487183 29.349520 
-1.714835 2.165771 4.270927 39.232410 -9.088959 30.260170 
-1.721317 2.181857 4.276915 37.704080 -8.672668 31.441790 
-1.729463 2.196479 4.282501 36.296890 -8.241791 32.538560 
-1.737100 2.210029 4.287847 35.006320 -7.795441 33.717000 
-1.744050 2.223833 4.293022 33.597540 -7.220734 34.786710 
-1.750264 2.236807 4.296958 32.393150 -6.721436 35.756020 
-1.755101 2.250190 4.299472 31.250280 -6.234070 36.638030 
-1.760092 2.262776 4.301017 29.875800 -5.800568 37.403110 
-1.766163 2.274465 4.299638 28.629790 -5.294312 37.981040 
-1.771322 2.285614 4.295359 27.241210 -4.976318 38.564490 
-1.777946 2.295532 4.288824 25.705730 -4.658020 39.027410 
-1.783353 2.304419 4.280990 24.227000 -4.427673 39.359850 
-1.788409 2.312939 4.271450 22.831020 -4.311798 39.599500 
-1.793356 2.320208 4.261724 21.626260 -4.266602 39.845270 
-1.798522 2.325992 4.251251 20.364430 -4.288330 40.095880 
-1.804436 2.329646 4.240911 19.457930 -4.279938 40.436540 
-1.810558 2.331428 4.230107 18.567170 -4.339569 40.795510 
-1.817143 2.330124 4.219870 17.668500 -4.346161 41.078760 
-1.823555 2.328749 4.208943 16.985940 -4.382324 41.413560 
-1.828211 2.326429 4.198663 16.507740 -4.459747 41.684570 
-1.832872 2.323865 4.188243 16.075240 -4.510803 41.908150 
-1.836770 2.320807 4.178155 15.789810 -4.471649 41.975210 
-1.839401 2.317733 4.168210 15.619560 -4.527618 42.181570 
